<mxfile host="app.diagrams.net" modified="2024-06-11T14:10:19.713Z" agent="Mozilla/5.0 (Windows NT 10.0; Win64; x64) AppleWebKit/537.36 (KHTML, like Gecko) Chrome/124.0.0.0 Safari/537.36 Edg/124.0.0.0" etag="n-d5g37sCXVwoOZnIcuq" version="24.5.3" type="device">
  <diagram name="Page-1" id="ZtX43-IxgKKzIMgUzXtP">
    <mxGraphModel dx="1386" dy="1893" grid="1" gridSize="10" guides="1" tooltips="1" connect="1" arrows="1" fold="1" page="1" pageScale="1" pageWidth="850" pageHeight="1100" math="0" shadow="0">
      <root>
        <mxCell id="0" />
        <mxCell id="1" parent="0" />
        <mxCell id="1Y_SKJIH_9t_C1TJnLde-9" style="edgeStyle=orthogonalEdgeStyle;rounded=0;orthogonalLoop=1;jettySize=auto;html=1;exitX=0.5;exitY=1;exitDx=0;exitDy=0;strokeColor=#F7F7F7;" edge="1" parent="1" source="1Y_SKJIH_9t_C1TJnLde-1" target="1Y_SKJIH_9t_C1TJnLde-2">
          <mxGeometry relative="1" as="geometry" />
        </mxCell>
        <mxCell id="1Y_SKJIH_9t_C1TJnLde-12" style="edgeStyle=orthogonalEdgeStyle;rounded=0;orthogonalLoop=1;jettySize=auto;html=1;exitX=1;exitY=0.5;exitDx=0;exitDy=0;entryX=0;entryY=0.5;entryDx=0;entryDy=0;startArrow=classic;startFill=1;strokeColor=#F7F7F7;" edge="1" parent="1" source="1Y_SKJIH_9t_C1TJnLde-1" target="1Y_SKJIH_9t_C1TJnLde-3">
          <mxGeometry relative="1" as="geometry" />
        </mxCell>
        <mxCell id="1Y_SKJIH_9t_C1TJnLde-1" value="Dashboard" style="rounded=1;whiteSpace=wrap;html=1;" vertex="1" parent="1">
          <mxGeometry x="150" y="130" width="170" height="60" as="geometry" />
        </mxCell>
        <mxCell id="1Y_SKJIH_9t_C1TJnLde-10" style="edgeStyle=orthogonalEdgeStyle;rounded=0;orthogonalLoop=1;jettySize=auto;html=1;exitX=0.5;exitY=1;exitDx=0;exitDy=0;entryX=0.5;entryY=0;entryDx=0;entryDy=0;strokeColor=#F7F7F7;" edge="1" parent="1" source="1Y_SKJIH_9t_C1TJnLde-2" target="1Y_SKJIH_9t_C1TJnLde-7">
          <mxGeometry relative="1" as="geometry" />
        </mxCell>
        <mxCell id="1Y_SKJIH_9t_C1TJnLde-2" value="Order Table" style="rounded=1;whiteSpace=wrap;html=1;" vertex="1" parent="1">
          <mxGeometry x="150" y="230" width="170" height="60" as="geometry" />
        </mxCell>
        <mxCell id="1Y_SKJIH_9t_C1TJnLde-11" style="edgeStyle=orthogonalEdgeStyle;rounded=0;orthogonalLoop=1;jettySize=auto;html=1;exitX=0.5;exitY=1;exitDx=0;exitDy=0;entryX=0.5;entryY=0;entryDx=0;entryDy=0;strokeColor=#F7F7F7;" edge="1" parent="1" source="1Y_SKJIH_9t_C1TJnLde-3" target="1Y_SKJIH_9t_C1TJnLde-6">
          <mxGeometry relative="1" as="geometry" />
        </mxCell>
        <mxCell id="1Y_SKJIH_9t_C1TJnLde-13" style="edgeStyle=orthogonalEdgeStyle;rounded=0;orthogonalLoop=1;jettySize=auto;html=1;exitX=1;exitY=0.5;exitDx=0;exitDy=0;entryX=0;entryY=0.5;entryDx=0;entryDy=0;startArrow=classic;startFill=1;strokeColor=#F7F7F7;" edge="1" parent="1" source="1Y_SKJIH_9t_C1TJnLde-3" target="1Y_SKJIH_9t_C1TJnLde-4">
          <mxGeometry relative="1" as="geometry" />
        </mxCell>
        <mxCell id="1Y_SKJIH_9t_C1TJnLde-3" value="New Shipment" style="rounded=1;whiteSpace=wrap;html=1;" vertex="1" parent="1">
          <mxGeometry x="350" y="130" width="170" height="60" as="geometry" />
        </mxCell>
        <mxCell id="1Y_SKJIH_9t_C1TJnLde-4" value="About Us" style="rounded=1;whiteSpace=wrap;html=1;" vertex="1" parent="1">
          <mxGeometry x="550" y="130" width="170" height="60" as="geometry" />
        </mxCell>
        <mxCell id="1Y_SKJIH_9t_C1TJnLde-8" style="edgeStyle=orthogonalEdgeStyle;rounded=0;orthogonalLoop=1;jettySize=auto;html=1;exitX=0.5;exitY=1;exitDx=0;exitDy=0;entryX=0.5;entryY=0;entryDx=0;entryDy=0;startArrow=classic;startFill=1;strokeColor=#FAFAFA;" edge="1" parent="1" source="1Y_SKJIH_9t_C1TJnLde-5" target="1Y_SKJIH_9t_C1TJnLde-1">
          <mxGeometry relative="1" as="geometry" />
        </mxCell>
        <mxCell id="1Y_SKJIH_9t_C1TJnLde-5" value="Login / Signup" style="rounded=1;whiteSpace=wrap;html=1;" vertex="1" parent="1">
          <mxGeometry x="150" y="30" width="170" height="60" as="geometry" />
        </mxCell>
        <mxCell id="1Y_SKJIH_9t_C1TJnLde-6" value="New Order" style="rounded=1;whiteSpace=wrap;html=1;" vertex="1" parent="1">
          <mxGeometry x="350" y="230" width="170" height="60" as="geometry" />
        </mxCell>
        <mxCell id="1Y_SKJIH_9t_C1TJnLde-7" value="Sender Information" style="rounded=1;whiteSpace=wrap;html=1;" vertex="1" parent="1">
          <mxGeometry x="150" y="330" width="170" height="60" as="geometry" />
        </mxCell>
        <mxCell id="1Y_SKJIH_9t_C1TJnLde-14" value="Boxinator" style="rounded=1;whiteSpace=wrap;html=1;" vertex="1" parent="1">
          <mxGeometry x="150" y="-70" width="170" height="60" as="geometry" />
        </mxCell>
      </root>
    </mxGraphModel>
  </diagram>
</mxfile>
